<svg width="10" height="18" viewBox="0 0 10 18" fill="none" xmlns="http://www.w3.org/2000/svg">
<path d="M6.64121 4.78722C6.63087 5.39048 6.63903 5.9932 6.63903 6.61768C6.72498 6.62148 6.79624 6.62801 6.86804 6.62801C7.57357 6.62855 8.27964 6.62747 8.98572 6.62856C9.41328 6.62964 9.51881 6.73463 9.51935 7.15457C9.52044 7.96237 9.52098 8.77016 9.51935 9.57796C9.51826 9.95221 9.42524 10.0469 9.04882 10.0485C8.32914 10.0518 7.61002 10.0496 6.89034 10.0496H6.64012V16.6762C6.64012 17.2751 6.58137 17.3328 5.97267 17.3328C5.1986 17.3328 4.42507 17.3333 3.65155 17.3322C3.22181 17.3317 3.12227 17.2332 3.12172 16.8068C3.12118 14.6554 3.12172 12.5034 3.12172 10.3515V10.0871C3.03904 10.0822 2.96778 10.0746 2.89652 10.0746C2.30631 10.0735 1.71556 10.0751 1.12535 10.0735C0.715745 10.0719 0.616742 9.97669 0.615654 9.57089C0.61239 8.77669 0.612934 7.9825 0.61511 7.1883C0.616198 6.76618 0.713025 6.67153 1.13025 6.67099C1.71393 6.67044 2.29761 6.67099 2.88129 6.67099H3.12172C3.12172 6.57035 3.12063 6.49093 3.12172 6.41151C3.13587 5.63799 3.10812 4.8612 3.1734 4.09257C3.33877 2.15767 4.82652 0.756946 6.77067 0.684054C7.58391 0.653592 8.39877 0.670999 9.21364 0.673175C9.4829 0.674263 9.59823 0.790672 9.59986 1.06157C9.60421 1.86936 9.60421 2.67716 9.59986 3.48495C9.59823 3.75966 9.48508 3.86845 9.19025 3.87552C8.64084 3.88858 8.09089 3.88912 7.54148 3.89728C6.90394 3.90707 6.65263 4.14805 6.64121 4.78722Z" fill="#555555"/>
</svg>
